<svg width="522" height="348" viewBox="0 0 522 348" fill="none" xmlns="http://www.w3.org/2000/svg">
<g clip-path="url(#clip0_199_6332)">
<path d="M246.443 146.225C249.432 134.152 277.687 116.52 292.786 127.151C297.42 104.15 301.755 89.8073 316.896 78.477C332.038 67.1467 357.302 81.9564 361.36 112.977C365.417 100.225 386.047 83.0387 402.62 97.5306C417.953 110.94 419.491 133.41 417.889 146.204H246.443V146.225Z" fill="url(#paint0_linear_199_6332)"/>
<path d="M241.423 281.146C245.384 265.155 282.815 241.8 302.818 255.881C308.958 225.416 314.701 206.417 334.761 191.409C354.82 176.402 388.291 196.018 393.666 237.107C399.042 220.216 426.373 197.452 448.328 216.647C468.642 234.409 470.68 264.171 468.558 281.118H241.423V281.146Z" fill="url(#paint1_linear_199_6332)"/>
<path d="M86.42 163.796C88.6681 154.688 109.91 141.387 121.262 149.406C124.746 132.056 128.005 121.235 139.389 112.688C150.772 104.14 169.767 115.313 172.817 138.714C175.868 129.094 191.378 116.129 203.838 127.062C215.366 137.178 216.522 154.129 215.318 163.78H86.42V163.796Z" fill="url(#paint2_linear_199_6332)"/>
<path fill-rule="evenodd" clip-rule="evenodd" d="M344.488 104.263L308.714 68.4579C306.366 66.1072 303.578 64.242 300.509 62.969C297.44 61.696 294.15 61.04 290.828 61.0386H200.103C186.125 61.0386 174.803 72.37 174.803 86.3602V263.615C174.803 277.605 186.125 288.937 200.103 288.937H326.602C340.58 288.937 351.901 277.605 351.901 263.615V122.166C351.899 115.452 349.233 109.013 344.488 104.263Z" fill="#3386A9"/>
<path d="M215.759 149.504H293.835M215.759 184.872H293.835M215.759 220.241H271.814" stroke="white" stroke-width="27.184" stroke-linecap="round" stroke-linejoin="round"/>
<path d="M237.03 289.932C234.651 280.189 212.172 265.96 200.159 274.538C196.471 255.977 193.022 244.402 180.976 235.258C168.928 226.114 148.828 238.066 145.6 263.1C142.371 252.809 125.957 238.939 112.772 250.634C100.573 261.457 99.3493 279.59 100.624 289.915H237.03V289.932Z" fill="url(#paint3_linear_199_6332)"/>
<path d="M140.388 232.198L145.409 227.492L140.388 222.786L135.368 227.492L140.388 232.198Z" stroke="#E1E4E5" stroke-width="4.328" stroke-linecap="round" stroke-linejoin="round"/>
<path d="M115.344 199.225L130.614 183.956C131.17 183.4 131.17 182.498 130.614 181.942C130.058 181.386 129.156 181.386 128.6 181.942L113.33 197.212C112.774 197.768 112.774 198.669 113.33 199.225C113.886 199.781 114.788 199.781 115.344 199.225Z" fill="#E1E4E5"/>
<path d="M116.839 188.292L121.242 183.888C121.798 183.332 121.798 182.431 121.242 181.875C120.686 181.319 119.784 181.319 119.228 181.875L114.825 186.278C114.269 186.834 114.269 187.736 114.825 188.292C115.381 188.848 116.283 188.848 116.839 188.292Z" fill="#E1E4E5"/>
<path d="M380.172 62.0455L364.902 77.3152C364.346 77.8712 364.346 78.7728 364.902 79.3289C365.458 79.8849 366.36 79.8849 366.916 79.3289L382.186 64.0592C382.742 63.5031 382.742 62.6016 382.186 62.0455C381.63 61.4895 380.728 61.4894 380.172 62.0455Z" fill="#E1E4E5"/>
<path d="M378.677 72.9791L374.274 77.3826C373.718 77.9386 373.718 78.8402 374.274 79.3962C374.83 79.9523 375.732 79.9523 376.288 79.3963L380.691 74.9928C381.247 74.4367 381.247 73.5351 380.691 72.9791C380.135 72.423 379.233 72.423 378.677 72.9791Z" fill="#E1E4E5"/>
<path d="M381.364 170.072C381.364 173.193 378.975 175.72 376.024 175.72C373.073 175.72 370.696 173.18 370.696 170.072C370.696 166.951 373.085 164.424 376.036 164.424C378.987 164.424 381.364 166.951 381.364 170.072ZM115.287 117.672C115.287 121.66 111.914 124.888 107.748 124.888C103.582 124.888 100.226 121.644 100.226 117.672C100.226 113.684 103.598 110.455 107.765 110.455C111.931 110.455 115.287 113.684 115.287 117.672Z" stroke="#E1E4E5" stroke-width="5.41" stroke-miterlimit="10"/>
<path d="M395.229 118.584L393.627 116.982C391.176 114.532 387.202 114.532 384.752 116.982L383.15 118.584C380.699 121.035 380.699 125.009 383.15 127.459L384.752 129.061C387.202 131.512 391.176 131.512 393.627 129.061L395.229 127.459C397.679 125.009 397.679 121.035 395.229 118.584Z" fill="white"/>
<path d="M150.933 77.1063C144.981 82.3066 134.743 80.3346 134.743 80.3346C134.743 80.3346 134.162 69.9305 140.118 64.7337C146.07 59.5329 156.303 61.5014 156.303 61.5014C156.303 61.5014 156.885 71.9054 150.933 77.1063Z" fill="url(#paint4_linear_199_6332)"/>
<path fill-rule="evenodd" clip-rule="evenodd" d="M267.152 289.546C267.152 289.546 300.129 267.033 346.464 266.716C393.009 266.399 430.039 288.776 433.45 289.932L267.152 289.546Z" fill="url(#paint5_linear_199_6332)"/>
<path d="M423.129 189.669C414.389 198.564 398.045 196.688 398.045 196.688C398.045 196.688 395.883 180.39 404.631 171.5C413.371 162.605 429.706 164.475 429.706 164.475C429.706 164.475 431.869 180.773 423.129 189.669Z" fill="url(#paint6_linear_199_6332)"/>
<path d="M360.188 60.4877L350.448 64.2954L351.065 53.8566L360.802 50.0518L360.188 60.4877Z" stroke="#E1E4E5" stroke-width="4.551" stroke-linecap="round" stroke-linejoin="round"/>
</g>
<defs>
<linearGradient id="paint0_linear_199_6332" x1="328.75" y1="186.334" x2="329.668" y2="-3.1586" gradientUnits="userSpaceOnUse">
<stop stop-color="white"/>
<stop offset="1" stop-color="#EEEEEE"/>
</linearGradient>
<linearGradient id="paint1_linear_199_6332" x1="350.464" y1="334.274" x2="351.68" y2="83.2781" gradientUnits="userSpaceOnUse">
<stop stop-color="white"/>
<stop offset="1" stop-color="#EEEEEE"/>
</linearGradient>
<linearGradient id="paint2_linear_199_6332" x1="148.3" y1="194.054" x2="148.995" y2="51.1032" gradientUnits="userSpaceOnUse">
<stop stop-color="white"/>
<stop offset="1" stop-color="#EEEEEE"/>
</linearGradient>
<linearGradient id="paint3_linear_199_6332" x1="171.545" y1="322.301" x2="170.793" y2="169.377" gradientUnits="userSpaceOnUse">
<stop stop-color="white"/>
<stop offset="1" stop-color="#EEEEEE"/>
</linearGradient>
<linearGradient id="paint4_linear_199_6332" x1="127.432" y1="94.6287" x2="172.133" y2="35.0777" gradientUnits="userSpaceOnUse">
<stop stop-color="white"/>
<stop offset="1" stop-color="#EEEEEE"/>
</linearGradient>
<linearGradient id="paint5_linear_199_6332" x1="353.847" y1="302.95" x2="353.747" y2="241.446" gradientUnits="userSpaceOnUse">
<stop stop-color="white"/>
<stop offset="1" stop-color="#EEEEEE"/>
</linearGradient>
<linearGradient id="paint6_linear_199_6332" x1="388.258" y1="220.054" x2="451.444" y2="121.005" gradientUnits="userSpaceOnUse">
<stop stop-color="white"/>
<stop offset="1" stop-color="#EEEEEE"/>
</linearGradient>
<clipPath id="clip0_199_6332">
<rect width="522" height="348" fill="white"/>
</clipPath>
</defs>
</svg>
