<svg width="736" height="490" viewBox="0 0 736 490" fill="none" xmlns="http://www.w3.org/2000/svg">
<g clip-path="url(#clip0_199_6224)">
<path d="M588.056 208.018C601.531 163.651 529.987 135.456 529.987 135.456C529.987 135.456 444.869 174.662 431.213 168.334C417.558 162.005 497.439 120.618 497.439 120.618C474.385 102.924 393.04 93.8946 393.04 93.8946C393.04 93.8946 348.48 173.828 336.804 164.337C325.128 154.847 379.877 95.5663 379.877 95.5663C351.678 87.8496 312.184 101.674 312.184 101.674C256.261 129.421 294.826 199.706 294.826 199.706C294.826 199.706 278.786 227.077 242.854 247.516C242.854 247.516 235.54 250.866 225.667 258.16L232.138 262.204C233.713 260.828 235.347 259.521 237.036 258.287C237.045 258.276 237.057 258.268 237.071 258.264C237.098 258.247 237.116 258.23 237.144 258.213C238.629 257.21 240.122 256.217 241.621 255.235L241.626 255.23L241.632 255.224C246.032 252.588 249.161 250.572 251.291 249.038L251.307 249.021C264.838 240.583 283.278 230.103 291.048 230.346C291.048 230.346 290.96 228.892 291.517 226.515C291.37 227.736 291.206 229.01 291.048 230.346C287.276 260.979 340.21 299.541 375.04 312.498C409.87 325.456 401.863 308.357 394.077 283.863C386.29 259.368 349.136 241.333 342.315 229.374C335.494 217.415 353.993 221.275 373.59 235.711C393.174 250.147 390.599 277.128 421.86 301.054C453.121 324.982 517.566 278.355 517.566 278.355C490.154 271.134 456.917 232.769 460.282 223.879C463.653 214.984 524.106 253.847 535.085 257.406C546.081 260.972 574.581 252.385 588.056 208.018Z" fill="url(#paint0_linear_199_6224)"/>
<path d="M203.143 168.312C203.143 151.352 216.911 137.603 233.894 137.603H476.481C493.463 137.603 507.231 151.352 507.231 168.312V356.829C507.231 373.789 493.463 387.538 476.481 387.538H233.894C216.911 387.538 203.143 373.789 203.143 356.829V168.312Z" fill="#5CC2ED"/>
<path d="M238.592 169.165C242.13 169.165 244.998 166.301 244.998 162.767C244.998 159.234 242.13 156.37 238.592 156.37C235.053 156.37 232.185 159.234 232.185 162.767C232.185 166.301 235.053 169.165 238.592 169.165Z" fill="white"/>
<path d="M260.801 169.165C264.339 169.165 267.207 166.301 267.207 162.767C267.207 159.234 264.339 156.37 260.801 156.37C257.263 156.37 254.394 159.234 254.394 162.767C254.394 166.301 257.263 169.165 260.801 169.165Z" fill="white"/>
<path d="M283.009 169.165C286.547 169.165 289.416 166.301 289.416 162.767C289.416 159.234 286.547 156.37 283.009 156.37C279.471 156.37 276.603 159.234 276.603 162.767C276.603 166.301 279.471 169.165 283.009 169.165Z" fill="white"/>
<path d="M432.918 307.354H239.019C235.245 307.354 232.186 310.409 232.186 314.178C232.186 317.947 235.245 321.002 239.019 321.002H432.918C436.692 321.002 439.751 317.947 439.751 314.178C439.751 310.409 436.692 307.354 432.918 307.354Z" fill="white"/>
<path d="M417.97 267.262H239.446C235.436 267.262 232.186 270.508 232.186 274.513V274.514C232.186 278.518 235.436 281.764 239.446 281.764H417.97C421.98 281.764 425.231 278.518 425.231 274.514V274.513C425.231 270.508 421.98 267.262 417.97 267.262Z" fill="white"/>
<path d="M442.314 226.317H239.019C235.245 226.317 232.186 229.372 232.186 233.141C232.186 236.91 235.245 239.965 239.019 239.965H442.314C446.088 239.965 449.147 236.91 449.147 233.141C449.147 229.372 446.088 226.317 442.314 226.317Z" fill="white"/>
<path d="M150.593 431.835C149.92 430.013 161.662 383.183 163.23 381.605C164.803 380.035 215.465 379.061 215.465 379.061C215.465 379.061 238.293 357.574 257.169 347.173C264.613 343.064 274.545 340.601 275.808 344.366C276.592 346.699 273.143 351.213 268.757 355.762C268.747 355.777 268.732 355.79 268.717 355.803C262.611 362.13 254.728 368.495 253.986 369.093C253.945 369.122 253.929 369.135 253.929 369.135C253.929 369.135 295.577 369.738 301.74 370.254C307.906 370.759 316.034 371.114 316.195 375.381C316.347 379.302 305.276 380.883 304.617 380.976C305.304 380.97 319.795 380.882 320.444 386.464C320.925 390.616 305.059 393.981 304.59 394.073C304.964 394.077 312.084 394.116 311.945 397.444C311.714 402.915 295.637 404.989 294.98 405.076C295.329 405.085 301.047 405.263 300.659 408.256C299.695 415.666 244.562 422.168 227.844 423.675C211.109 425.172 151.272 433.66 150.593 431.835Z" fill="#F8AE9D"/>
<path d="M534.565 331.238H591.795V387.538H534.565V331.238Z" fill="url(#paint1_linear_199_6224)"/>
<path d="M597.774 316.737H557.628C552.91 316.737 549.086 320.556 549.086 325.267V364.506C549.086 369.217 552.91 373.036 557.628 373.036H597.774C602.492 373.036 606.316 369.217 606.316 364.506V325.267C606.316 320.556 602.492 316.737 597.774 316.737Z" fill="#5CC2ED"/>
<path d="M591.393 162.781L583.608 155.007C580.273 151.676 574.864 151.676 571.529 155.007L563.744 162.781C560.408 166.112 560.409 171.513 563.744 174.844L571.529 182.618C574.864 185.95 580.273 185.95 583.608 182.618L591.393 174.844C594.729 171.513 594.729 166.112 591.393 162.781Z" fill="#5CC2ED"/>
<path d="M540.971 188.784C544.51 188.784 547.378 191.648 547.378 195.182C547.378 198.715 544.51 201.579 540.971 201.579C537.433 201.579 534.565 198.715 534.565 195.182C534.565 191.648 537.433 188.784 540.971 188.784Z" fill="#E1E4E5"/>
<path d="M169.738 346.228C169.738 346.228 180.931 294.416 165.692 256.007C163.668 250.904 156.325 251.204 154.643 256.443C154.616 256.53 154.586 256.619 154.559 256.711C151.838 265.702 167.456 312.903 169.738 346.228ZM164.205 361.538C164.205 361.538 160.241 290.643 126.374 248.312C124.31 245.732 120.522 245.119 117.86 247.096C116.128 248.386 114.706 250.836 114.587 255.381C114.276 267.509 149.932 320.865 164.205 361.538Z" fill="#5CC2ED"/>
<path d="M144.632 233.141L133.955 222.905L144.632 212.669L155.31 222.905L144.632 233.141ZM546.95 299.677L536.273 289.014L546.95 278.351L557.628 289.014L546.95 299.677Z" stroke="#E1E4E5" stroke-width="5.313" stroke-linecap="round" stroke-linejoin="round"/>
<path d="M261.582 107.186C258.026 112.355 260.525 120.24 260.525 120.24C260.525 120.24 268.788 119.742 272.34 114.57C275.896 109.402 273.4 101.519 273.4 101.519C273.4 101.519 265.137 102.018 261.582 107.186Z" fill="#E1E4E5"/>
<path d="M628.991 277.934C612.125 295.078 580.585 291.463 580.585 291.463C580.585 291.463 576.411 260.053 593.293 242.92C610.16 225.777 641.685 229.38 641.685 229.38C641.685 229.38 645.859 260.79 628.991 277.934Z" fill="url(#paint2_linear_199_6224)"/>
<path d="M535.029 113.204C529.913 118.404 520.347 117.307 520.347 117.307C520.347 117.307 519.081 107.78 524.201 102.583C529.317 97.3834 538.879 98.477 538.879 98.477C538.879 98.477 540.145 108.004 535.029 113.204Z" fill="url(#paint3_linear_199_6224)"/>
<path d="M183.859 178.292C191.366 191.536 187.804 211.605 187.804 211.605C187.804 211.605 166.321 205.703 158.812 192.458C151.305 179.214 150.825 165.312 157.736 161.397C164.658 157.479 176.351 165.048 183.859 178.292Z" fill="url(#paint4_linear_199_6224)"/>
<path d="M569.262 222.905H569.056C567.844 240.068 555.065 240.332 555.065 240.332C555.065 240.332 569.156 240.607 569.156 260.438C569.156 240.607 583.248 240.332 583.248 240.332C583.248 240.332 570.474 240.068 569.262 222.905Z" fill="#E1E4E5"/>
</g>
<defs>
<linearGradient id="paint0_linear_199_6224" x1="162.785" y1="441.862" x2="750.854" y2="-138.366" gradientUnits="userSpaceOnUse">
<stop stop-color="white"/>
<stop offset="1" stop-color="#EEEEEE"/>
</linearGradient>
<linearGradient id="paint1_linear_199_6224" x1="564.4" y1="419.102" x2="562.692" y2="269.994" gradientUnits="userSpaceOnUse">
<stop stop-color="white"/>
<stop offset="1" stop-color="#EEEEEE"/>
</linearGradient>
<linearGradient id="paint2_linear_199_6224" x1="561.696" y1="336.493" x2="683.398" y2="145.455" gradientUnits="userSpaceOnUse">
<stop stop-color="white"/>
<stop offset="1" stop-color="#EEEEEE"/>
</linearGradient>
<linearGradient id="paint3_linear_199_6224" x1="514.618" y1="130.965" x2="551.531" y2="73.0217" gradientUnits="userSpaceOnUse">
<stop stop-color="white"/>
<stop offset="1" stop-color="#EEEEEE"/>
</linearGradient>
<linearGradient id="paint4_linear_199_6224" x1="202.265" y1="177.233" x2="124.469" y2="198.631" gradientUnits="userSpaceOnUse">
<stop stop-color="white"/>
<stop offset="1" stop-color="#EEEEEE"/>
</linearGradient>
<clipPath id="clip0_199_6224">
<rect width="736" height="490" fill="white"/>
</clipPath>
</defs>
</svg>
