<svg width="18" height="18" viewBox="0 0 18 18" fill="none" xmlns="http://www.w3.org/2000/svg">
<mask id="mask0_215_1810" style="mask-type:luminance" maskUnits="userSpaceOnUse" x="0" y="0" width="18" height="18">
<path d="M17.3299 0H0V17.3333H17.3299V0Z" fill="white"/>
</mask>
<g mask="url(#mask0_215_1810)">
<path d="M15.1615 5.77768V2.1665M15.1615 2.1665H11.5526M15.1615 2.1665L10.8291 6.49984M7.38258 10.012C6.51608 9.14425 5.82944 8.16297 5.32688 7.11604C5.28355 7.02591 5.26402 6.98106 5.24669 6.92407C5.1882 6.72149 5.22938 6.47297 5.35286 6.30137C5.38752 6.25306 5.42867 6.21188 5.51099 6.12933C5.76227 5.87692 5.89004 5.7506 5.97236 5.62364C6.28429 5.1448 6.28429 4.52774 5.97236 4.04891C5.89004 3.92194 5.76227 3.79583 5.51099 3.5432L5.37018 3.40259C4.98675 3.01865 4.79397 2.82669 4.58818 2.72247C4.17876 2.51512 3.69565 2.51512 3.28407 2.72247C3.07827 2.82669 2.88766 3.01865 2.50207 3.40259L2.38942 3.51634C2.006 3.89876 1.81537 4.09007 1.67023 4.35007C1.50776 4.63867 1.39081 5.08673 1.39297 5.4178C1.39297 5.71594 1.45143 5.91982 1.56624 6.32737C2.18795 8.5183 3.36205 10.5855 5.08637 12.3102C6.8107 14.0349 8.87732 15.2081 11.0674 15.8299C11.4746 15.9456 11.6782 16.0035 11.9772 16.0044C12.3064 16.0052 12.7549 15.8887 13.043 15.7266C13.3029 15.5806 13.4957 15.3892 13.877 15.0068L13.9918 14.8931C14.3752 14.5091 14.568 14.3172 14.672 14.1111C14.8778 13.7012 14.8778 13.2172 14.672 12.8072C14.568 12.6012 14.3752 12.4092 13.9918 12.0255L13.851 11.8847C13.5976 11.6322 13.4719 11.5059 13.3441 11.4234C12.8653 11.112 12.2501 11.112 11.7714 11.4234C11.6436 11.5059 11.518 11.6322 11.2645 11.8847C11.1822 11.9672 11.141 12.0086 11.0934 12.043C10.9222 12.1659 10.6731 12.2084 10.4695 12.1492C10.4132 12.1325 10.3677 12.1111 10.2788 12.0677C9.23255 11.5651 8.25124 10.8798 7.38258 10.012Z" stroke="white" stroke-width="0.5" stroke-linecap="round" stroke-linejoin="round"/>
</g>
</svg>
