<svg width="688" height="459" viewBox="0 0 688 459" fill="none" xmlns="http://www.w3.org/2000/svg">
<g clip-path="url(#clip0_199_6246)">
<path d="M148.669 339.432C150.61 352.824 141.321 365.255 127.901 367.207C114.491 369.158 102.042 359.881 100.092 346.489C98.1508 333.106 107.449 320.666 120.859 318.714C134.278 316.763 146.728 326.039 148.669 339.432Z" fill="url(#paint0_linear_199_6246)"/>
<path d="M142.892 340.274C144.371 350.475 137.292 359.956 127.07 361.444C116.848 362.925 107.356 355.858 105.877 345.656C104.399 335.446 111.478 325.965 121.7 324.486C131.922 322.996 141.405 330.062 142.892 340.274Z" fill="white"/>
<path d="M128.019 353.584L128.557 356.834L125.571 357.3L125.053 354.135C122.067 354.424 119.091 353.966 117.248 352.967L118.304 349.175C119.974 350.016 122.25 350.464 124.429 350.333L123.632 345.486C120.195 345.216 116.317 344.721 115.635 340.574C115.127 337.501 116.989 334.503 121.616 333.243L121.088 330.02L124.074 329.554L124.592 332.719C126.858 332.542 129.133 332.785 130.938 333.542L130.035 337.342C128.375 336.736 126.743 336.483 125.226 336.54L126.042 341.47C129.479 341.704 133.289 342.218 133.961 346.308C134.451 349.334 132.617 352.304 128.019 353.584ZM122.931 341.218L122.25 337.1C120.723 337.697 120.243 338.631 120.397 339.594C120.57 340.602 121.549 341.022 122.931 341.218ZM129.209 347.42C129.047 346.401 128.087 345.991 126.733 345.748L127.395 349.754C128.835 349.204 129.363 348.344 129.209 347.42Z" fill="#E1E4E5"/>
<path d="M259.895 324.573C262.056 339.482 251.715 353.321 236.775 355.494C221.845 357.667 207.985 347.339 205.814 332.429C203.653 317.529 214.005 303.68 228.934 301.508C243.875 299.335 257.735 309.663 259.895 324.573Z" fill="url(#paint1_linear_199_6246)"/>
<path d="M253.464 325.51C255.11 336.867 247.229 347.421 235.849 349.079C224.468 350.727 213.902 342.86 212.255 331.502C210.609 320.135 218.49 309.58 229.871 307.933C241.25 306.275 251.807 314.142 253.464 325.51Z" fill="white"/>
<path d="M236.906 340.328L237.505 343.945L234.181 344.466L233.604 340.941C230.28 341.263 226.967 340.754 224.915 339.642L226.091 335.42C227.95 336.356 230.483 336.855 232.909 336.709L232.022 331.313C228.196 331.012 223.878 330.461 223.119 325.844C222.553 322.424 224.626 319.086 229.778 317.682L229.19 314.095L232.513 313.575L233.091 317.1C235.613 316.903 238.146 317.173 240.155 318.015L239.15 322.246C237.301 321.571 235.485 321.29 233.796 321.353L234.704 326.842C238.53 327.102 242.774 327.674 243.521 332.228C244.067 335.597 242.025 338.903 236.906 340.328ZM231.241 326.562L230.483 321.976C228.784 322.642 228.249 323.681 228.42 324.752C228.612 325.875 229.703 326.343 231.241 326.562ZM238.232 333.465C238.05 332.332 236.981 331.875 235.474 331.604L236.211 336.064C237.815 335.451 238.402 334.495 238.232 333.465Z" fill="#E1E4E5"/>
<path d="M248.184 117.528C250.345 132.438 240.004 146.276 225.064 148.449C210.134 150.622 196.274 140.294 194.103 125.384C191.943 110.485 202.293 96.6355 217.223 94.4629C232.163 92.2903 246.023 102.618 248.184 117.528Z" fill="url(#paint2_linear_199_6246)"/>
<path d="M241.753 118.465C243.399 129.822 235.518 140.377 224.137 142.035C212.757 143.682 202.19 135.815 200.544 124.458C198.898 113.09 206.779 102.535 218.159 100.888C229.54 99.2305 240.096 107.097 241.753 118.465Z" fill="white"/>
<path d="M225.195 133.283L225.793 136.901L222.469 137.421L221.892 133.896C218.568 134.218 215.255 133.709 213.204 132.597L214.379 128.375C216.238 129.311 218.772 129.81 221.198 129.664L220.311 124.269C216.485 123.967 212.167 123.416 211.408 118.8C210.841 115.379 212.915 112.041 218.066 110.637L217.478 107.05L220.802 106.531L221.379 110.055C223.902 109.858 226.435 110.128 228.444 110.97L227.439 115.202C225.591 114.527 223.774 114.246 222.085 114.308L222.993 119.797C226.819 120.057 231.063 120.63 231.81 125.184C232.355 128.552 230.314 131.858 225.195 133.283ZM219.531 119.517L218.772 114.932C217.072 115.597 216.538 116.637 216.709 117.707C216.901 118.83 217.991 119.299 219.531 119.517ZM226.52 126.421C226.338 125.288 225.27 124.83 223.763 124.56L224.501 129.02C226.104 128.407 226.691 127.45 226.52 126.421Z" fill="#E1E4E5"/>
<path d="M594.417 279.773C598.776 309.859 577.91 337.784 547.763 342.168C517.637 346.553 489.67 325.712 485.289 295.627C480.929 265.562 501.816 237.616 531.942 233.232C562.089 228.848 590.056 249.688 594.417 279.773Z" fill="url(#paint3_linear_199_6246)"/>
<path d="M581.44 281.664C584.762 304.582 568.858 325.878 545.894 329.224C522.931 332.548 501.609 316.674 498.286 293.757C494.965 270.818 510.868 249.521 533.831 246.197C556.795 242.851 578.097 258.726 581.44 281.664Z" fill="white"/>
<path d="M548.028 311.565L549.236 318.866L542.528 319.916L541.364 312.803C534.657 313.454 527.972 312.426 523.831 310.181L526.204 301.663C529.956 303.551 535.067 304.558 539.962 304.264L538.173 293.376C530.452 292.767 521.739 291.655 520.208 282.34C519.065 275.437 523.249 268.703 533.643 265.87L532.458 258.632L539.164 257.583L540.329 264.695C545.419 264.297 550.53 264.842 554.584 266.542L552.557 275.081C548.826 273.717 545.16 273.151 541.753 273.276L543.586 284.354C551.306 284.878 559.868 286.033 561.377 295.222C562.477 302.02 558.358 308.691 548.028 311.565ZM536.598 283.787L535.067 274.535C531.638 275.878 530.56 277.976 530.905 280.137C531.293 282.403 533.493 283.347 536.598 283.787ZM550.702 297.719C550.336 295.431 548.179 294.509 545.138 293.963L546.627 302.964C549.861 301.726 551.047 299.796 550.702 297.719Z" fill="#E1E4E5"/>
<path d="M557.007 121.519C561.367 151.605 540.5 179.53 510.354 183.914C480.228 188.299 452.261 167.458 447.88 137.372C443.519 107.308 464.407 79.3618 494.533 74.9776C524.68 70.5941 552.647 91.4335 557.007 121.519Z" fill="url(#paint4_linear_199_6246)"/>
<path d="M544.03 123.411C547.352 146.328 531.448 167.625 508.485 170.97C485.522 174.295 464.198 158.42 460.877 135.503C457.554 112.564 473.459 91.2676 496.422 87.9429C519.385 84.5975 540.687 100.472 544.03 123.411Z" fill="white"/>
<path d="M510.619 153.311L511.827 160.612L505.12 161.661L503.955 154.549C497.248 155.199 490.562 154.171 486.422 151.927L488.794 143.408C492.547 145.297 497.658 146.304 502.553 146.01L500.763 135.121C493.043 134.513 484.33 133.401 482.799 124.086C481.656 117.183 485.84 110.448 496.235 107.616L495.048 100.378L501.755 99.3291L502.92 106.441C508.009 106.043 513.12 106.588 517.175 108.287L515.148 116.826C511.417 115.463 507.751 114.896 504.343 115.022L506.176 126.1C513.897 126.624 522.459 127.778 523.968 136.968C525.068 143.765 520.949 150.437 510.619 153.311ZM499.189 125.533L497.658 116.281C494.229 117.624 493.151 119.722 493.496 121.883C493.884 124.149 496.083 125.093 499.189 125.533ZM513.293 139.464C512.926 137.177 510.77 136.254 507.729 135.709L509.217 144.71C512.452 143.472 513.638 141.541 513.293 139.464Z" fill="#E1E4E5"/>
<path d="M242.038 225.289C246.398 255.374 225.532 283.299 195.384 287.683C165.258 292.067 137.291 271.228 132.911 241.142C128.55 211.076 149.437 183.131 179.563 178.747C209.711 174.363 237.678 195.203 242.038 225.289Z" fill="url(#paint5_linear_199_6246)"/>
<path d="M229.062 227.179C232.383 250.096 216.48 271.393 193.516 274.738C170.553 278.063 149.23 262.188 145.908 239.271C142.586 216.333 158.49 195.036 181.453 191.711C204.417 188.366 225.719 204.24 229.062 227.179Z" fill="white"/>
<path d="M195.65 257.08L196.857 264.381L190.15 265.431L188.986 258.318C182.279 258.969 175.594 257.941 171.453 255.695L173.825 247.178C177.577 249.066 182.688 250.072 187.584 249.779L185.794 238.89C178.073 238.282 169.361 237.17 167.83 227.855C166.687 220.952 170.871 214.218 181.265 211.385L180.079 204.147L186.787 203.098L187.951 210.21C193.041 209.811 198.152 210.357 202.205 212.057L200.179 220.595C196.448 219.231 192.781 218.665 189.374 218.791L191.207 229.869C198.928 230.394 207.489 231.547 208.999 240.736C210.099 247.534 205.98 254.206 195.65 257.08ZM184.22 229.302L182.688 220.05C179.26 221.393 178.181 223.491 178.527 225.651C178.914 227.917 181.114 228.862 184.22 229.302ZM198.324 243.233C197.957 240.946 195.801 240.023 192.76 239.478L194.248 248.478C197.483 247.24 198.669 245.31 198.324 243.233Z" fill="#E1E4E5"/>
<path d="M393.305 121.766C397.665 151.852 376.799 179.776 346.652 184.161C316.526 188.545 288.559 167.705 284.178 137.619C279.818 107.554 300.705 79.6081 330.831 75.2239C360.978 70.8404 388.945 91.6798 393.305 121.766Z" fill="url(#paint6_linear_199_6246)"/>
<path d="M380.329 123.657C383.65 146.574 367.747 167.871 344.783 171.216C321.82 174.541 300.497 158.666 297.175 135.749C293.853 112.811 309.757 91.5139 332.72 88.1892C355.683 84.8439 376.986 100.718 380.329 123.657Z" fill="white"/>
<path d="M346.917 153.558L348.125 160.859L341.418 161.908L340.253 154.795C333.546 155.446 326.86 154.418 322.72 152.173L325.092 143.655C328.845 145.543 333.956 146.55 338.851 146.257L337.061 135.367C329.341 134.759 320.628 133.647 319.097 124.332C317.954 117.429 322.138 110.695 332.533 107.863L331.346 100.624L338.053 99.5754L339.218 106.688C344.307 106.289 349.418 106.835 353.473 108.534L351.446 117.073C347.715 115.709 344.049 115.142 340.641 115.269L342.474 126.346C350.195 126.871 358.757 128.024 360.266 137.213C361.366 144.011 357.247 150.683 346.917 153.558ZM335.487 125.78L333.956 116.527C330.527 117.87 329.449 119.968 329.793 122.129C330.182 124.395 332.381 125.339 335.487 125.78ZM349.591 139.71C349.224 137.424 347.068 136.5 344.027 135.955L345.515 144.955C348.75 143.717 349.936 141.787 349.591 139.71Z" fill="#E1E4E5"/>
<path fill-rule="evenodd" clip-rule="evenodd" d="M168.538 390.915H369.62C370.939 390.915 372.018 392.007 372.018 393.342C372.018 394.677 370.939 395.769 369.62 395.769H361.528C360.796 395.769 360.196 396.376 360.196 397.116C360.196 397.857 360.796 398.463 361.528 398.463H364.488C365.403 398.463 366.154 399.224 366.154 400.149C366.154 401.076 365.403 401.835 364.488 401.835H173.934C173.019 401.835 172.268 401.079 172.268 400.149C172.268 399.224 173.019 398.463 173.934 398.463H176.266C176.999 398.463 177.598 397.857 177.598 397.116C177.598 396.376 176.999 395.769 176.266 395.769H168.538C167.218 395.769 166.139 394.677 166.139 393.342C166.139 392.007 167.218 390.915 168.538 390.915ZM169.787 401.835C170.668 401.835 171.388 401.107 171.388 400.217V400.083C171.388 399.192 170.668 398.463 169.787 398.463C168.907 398.463 168.187 399.192 168.187 400.083V400.217C168.187 401.107 168.907 401.835 169.787 401.835Z" fill="#E1E4E5"/>
<path fill-rule="evenodd" clip-rule="evenodd" d="M344.581 390.915H544.953C546.267 390.915 547.342 392.007 547.342 393.342C547.342 394.677 546.267 395.768 544.953 395.768H536.889C536.159 395.768 535.562 396.375 535.562 397.116C535.562 397.857 536.159 398.463 536.889 398.463H539.838C540.75 398.463 541.5 399.224 541.5 400.149C541.5 401.075 540.75 401.835 539.838 401.835H349.959C349.046 401.835 348.298 401.079 348.298 400.149C348.298 399.224 349.046 398.463 349.959 398.463H352.283C353.012 398.463 353.61 397.857 353.61 397.116C353.61 396.375 353.012 395.768 352.283 395.768H344.581C343.266 395.768 342.191 394.677 342.191 393.342C342.191 392.007 343.266 390.915 344.581 390.915ZM345.826 401.835C346.704 401.835 347.421 401.107 347.421 400.217V400.082C347.421 399.192 346.704 398.463 345.826 398.463C344.949 398.463 344.232 399.192 344.232 400.082V400.217C344.232 401.107 344.949 401.835 345.826 401.835Z" fill="#E1E4E5"/>
<path d="M351.065 288.084C351.065 288.084 366.432 269.895 352.012 258.347C352.012 258.347 341.483 251.878 332.894 252.403C332.894 252.403 345.06 273.1 341.123 275.163C337.186 277.219 329.206 251.106 329.206 251.106C329.206 251.106 305.245 248.75 297.532 252.508C297.532 252.508 318.021 269.518 313.707 270.532C309.391 271.545 287.265 254.848 287.265 254.848C287.265 254.848 264.96 258.701 266.15 272.499C267.34 286.304 275.023 290.564 278.403 290.199C281.783 289.833 301.54 282.179 301.969 284.99C302.4 287.801 290.506 296.975 282.178 297.404C282.178 297.404 297.905 314.997 308.352 309.918C318.805 304.84 319.694 296.792 326.21 293.775C332.725 290.758 338.283 290.764 335.594 293.84C332.906 296.921 321.116 299.908 317.388 306.596C313.666 313.283 310.321 317.79 321.134 316.141C331.947 314.491 349.521 306.461 350.293 297.269L351.065 288.084Z" fill="#5CC2ED"/>
<path d="M277.114 272.518C277.114 272.518 338.135 270.172 351.613 287.577C351.613 287.577 354.591 296.48 363.763 304.584L365.191 308.47C365.191 308.47 354.614 297.349 350.835 296.678C350.835 296.678 356.755 275.114 277.114 272.518Z" fill="#5CC2ED"/>
<path d="M363.544 305.014C363.544 305.014 376.312 314.805 377.201 332.295L374.886 332.508C374.886 332.508 370.808 314.421 363.435 307.349C356.062 300.278 363.544 305.014 363.544 305.014ZM403.169 265.749C403.169 265.749 372.301 255.18 381.447 231.468C381.447 231.468 389.495 216.459 400.077 211.036C400.077 211.036 399.936 243.925 406.045 243.574C412.155 243.224 403.563 206.916 403.563 206.916C403.563 206.916 430.44 187.292 442.218 186.286C442.218 186.286 429.621 220.684 435.457 218.84C441.292 216.997 456.054 181.808 456.054 181.808C456.054 181.808 485.253 170.651 493.401 187.708C501.541 204.766 495.353 215.183 491.084 217.131C486.813 219.073 458.006 223.978 459.437 227.58C460.868 231.183 481.372 233.603 491.576 228.25C491.576 228.25 485.05 259.99 469.108 261.375C453.157 262.754 446.526 253.928 436.684 254.957C426.844 255.993 420.234 259.914 425.562 261.636C430.891 263.365 446.989 258.59 456.054 263.821C465.113 269.06 472.212 272.007 458.209 277.673C444.206 283.338 417.738 286.264 410.454 276.007L403.169 265.749Z" fill="#5CC2ED"/>
<path d="M480.623 195.856C480.623 195.856 406.915 235.684 403.169 265.749C403.169 265.749 405.873 278.398 400.714 294.419L401.743 300.031C401.743 300.031 406.458 279.448 410.454 276.007C410.455 276.013 388.382 254.548 480.623 195.856Z" fill="#5CC2ED"/>
<path d="M400.715 294.426C400.715 294.426 392.004 315.042 403.001 336.163L405.96 334.759C405.96 334.759 398.418 310.653 402.468 297.088C406.509 283.518 400.715 294.426 400.715 294.426ZM365.55 232.548C365.55 232.548 403.065 211.494 385.558 182.925C385.558 182.925 371.554 165.381 356.55 160.868C356.55 160.868 364.549 203.47 356.55 204.473C348.544 205.476 351.046 156.355 351.046 156.355C351.046 156.355 311.529 137.307 296.025 138.811C296.025 138.811 320.529 180.411 312.53 179.408C304.524 178.405 277.017 136.304 277.017 136.304C277.017 136.304 236.5 128.789 230.002 152.845C223.497 176.9 234.005 188.935 240.003 190.44C246.007 191.944 284.516 191.442 283.516 196.457C282.514 201.471 256.509 209.488 242.004 204.982C242.004 204.982 258.009 244.575 279.018 242.576C300.028 240.57 306.526 227.54 319.529 226.537C332.532 225.534 342.039 229.044 335.535 232.554C329.029 236.065 307.026 233.706 296.518 242.651C286.017 251.602 277.511 257.111 297.019 261.123C316.527 265.135 351.54 262.628 358.538 247.591L365.55 232.548Z" fill="#5CC2ED"/>
<path d="M248.509 160.372C248.509 160.372 353.54 194.458 365.543 232.547C365.543 232.547 365.042 249.59 375.543 269.139V276.661C375.543 276.661 364.542 251.101 358.537 247.591C358.544 247.584 382.055 214.501 248.509 160.372Z" fill="#5CC2ED"/>
<path d="M375.55 269.139C375.55 269.139 391.752 293.791 382.515 323.797L378.35 322.672C378.35 322.672 382.393 289.624 373.92 273.002C365.441 256.379 375.55 269.139 375.55 269.139Z" fill="#5CC2ED"/>
<path d="M294.171 316.92C295.073 355.867 326.857 387.154 365.933 387.154C405.001 387.154 436.784 355.867 437.686 316.92H294.171Z" fill="white" stroke="#E1E4E5" stroke-width="4.449"/>
<path d="M291.716 392.606H440.503C440.503 385.563 436.451 379.843 431.447 379.843H300.758C295.767 379.843 291.716 385.553 291.716 392.606Z" fill="white" stroke="#E1E4E5" stroke-width="4.449"/>
<path d="M291.126 315.481H442.259V328.501H291.126V315.481Z" fill="#E1E4E5"/>
<path fill-rule="evenodd" clip-rule="evenodd" d="M464.1 360.648H466.226C466.741 360.648 467.155 361.067 467.155 361.577V363.705C467.155 364.219 466.736 364.634 466.226 364.634H464.1C463.854 364.633 463.618 364.535 463.444 364.361C463.27 364.187 463.172 363.951 463.172 363.705V361.577C463.171 361.455 463.195 361.334 463.241 361.221C463.288 361.108 463.356 361.006 463.443 360.919C463.529 360.833 463.631 360.765 463.744 360.718C463.857 360.671 463.978 360.647 464.1 360.648ZM471.473 360.648H473.6C473.846 360.649 474.081 360.747 474.255 360.921C474.429 361.095 474.527 361.331 474.528 361.577V363.705C474.528 364.219 474.11 364.634 473.6 364.634H471.473C471.227 364.633 470.992 364.535 470.818 364.361C470.644 364.187 470.546 363.951 470.545 363.705V361.577C470.546 361.331 470.644 361.095 470.818 360.921C470.992 360.747 471.227 360.649 471.473 360.648ZM478.851 360.648H480.978C481.224 360.649 481.46 360.747 481.634 360.921C481.807 361.095 481.906 361.331 481.907 361.577V363.705C481.907 364.219 481.488 364.634 480.978 364.634H478.851C478.605 364.633 478.37 364.535 478.196 364.361C478.022 364.187 477.924 363.951 477.923 363.705V361.577C477.923 361.455 477.946 361.334 477.993 361.221C478.04 361.108 478.108 361.006 478.194 360.919C478.28 360.833 478.383 360.765 478.495 360.718C478.608 360.671 478.729 360.647 478.851 360.648ZM486.226 360.648H488.352C488.598 360.649 488.834 360.747 489.007 360.921C489.181 361.095 489.279 361.331 489.28 361.577V363.705C489.28 364.219 488.862 364.634 488.352 364.634H486.226C485.979 364.634 485.743 364.536 485.568 364.362C485.393 364.188 485.294 363.952 485.293 363.705V361.577C485.296 361.331 485.395 361.095 485.569 360.921C485.744 360.748 485.979 360.649 486.226 360.648ZM493.599 360.648H495.726C496.241 360.648 496.659 361.067 496.659 361.577V363.705C496.659 364.219 496.241 364.634 495.726 364.634H493.599C493.354 364.633 493.118 364.535 492.944 364.361C492.77 364.187 492.672 363.951 492.671 363.705V361.577C492.672 361.331 492.77 361.095 492.944 360.921C493.118 360.747 493.354 360.649 493.599 360.648ZM471.744 368.694H473.871C474.117 368.695 474.352 368.793 474.526 368.968C474.7 369.142 474.798 369.377 474.799 369.623V371.756C474.799 372.266 474.381 372.685 473.871 372.685H471.744C471.498 372.685 471.262 372.587 471.088 372.413C470.913 372.239 470.815 372.003 470.815 371.756V369.627C470.815 369.505 470.838 369.384 470.885 369.27C470.931 369.157 470.999 369.054 471.086 368.967C471.172 368.881 471.275 368.812 471.388 368.765C471.501 368.718 471.622 368.694 471.744 368.694ZM479.118 368.694H481.244C481.49 368.695 481.726 368.793 481.9 368.968C482.073 369.142 482.172 369.377 482.173 369.623V371.756C482.173 372.266 481.754 372.685 481.244 372.685H479.118C478.872 372.684 478.636 372.586 478.462 372.412C478.289 372.238 478.19 372.002 478.189 371.756V369.627C478.188 369.505 478.212 369.384 478.258 369.27C478.305 369.157 478.373 369.054 478.459 368.967C478.546 368.881 478.648 368.812 478.761 368.765C478.874 368.718 478.995 368.694 479.118 368.694ZM486.492 368.694H488.618C489.133 368.694 489.551 369.113 489.551 369.623V371.756C489.55 372.003 489.451 372.239 489.276 372.413C489.101 372.587 488.865 372.685 488.618 372.685H486.492C486.246 372.684 486.01 372.586 485.836 372.412C485.662 372.238 485.564 372.002 485.563 371.756V369.627C485.563 369.113 485.982 368.694 486.492 368.694ZM478.851 352.004H480.978C481.488 352.004 481.907 352.422 481.907 352.933V355.061C481.907 355.576 481.488 355.99 480.978 355.99H478.851C478.605 355.989 478.37 355.891 478.196 355.717C478.022 355.543 477.924 355.307 477.923 355.061V352.933C477.923 352.811 477.946 352.69 477.993 352.577C478.04 352.464 478.108 352.362 478.194 352.275C478.28 352.189 478.383 352.121 478.496 352.074C478.608 352.027 478.729 352.004 478.851 352.004ZM486.226 352.004H488.352C488.862 352.004 489.28 352.422 489.28 352.933V355.061C489.28 355.576 488.862 355.99 488.352 355.99H486.226C485.979 355.99 485.743 355.892 485.568 355.718C485.393 355.544 485.294 355.308 485.293 355.061V352.933C485.296 352.686 485.395 352.451 485.57 352.277C485.744 352.104 485.98 352.005 486.226 352.004Z" fill="#E1E4E5"/>
<path d="M176.849 311.777C178.492 311.777 179.825 313.3 179.825 315.18C179.825 317.06 178.492 318.583 176.849 318.583C175.205 318.583 173.873 317.06 173.873 315.18C173.873 313.3 175.205 311.777 176.849 311.777Z" fill="#E1E4E5"/>
<path d="M522.46 207.125C524.339 207.125 525.861 208.839 525.861 210.953C525.861 213.068 524.339 214.782 522.46 214.782C520.582 214.782 519.059 213.068 519.059 210.953C519.059 208.839 520.582 207.125 522.46 207.125Z" fill="#E1E4E5"/>
<path d="M420.522 143.312C422.166 143.312 423.498 144.645 423.498 146.29C423.498 147.935 422.166 149.268 420.522 149.268C418.879 149.268 417.546 147.935 417.546 146.29C417.546 144.645 418.879 143.312 420.522 143.312Z" fill="#E1E4E5"/>
<path d="M128.387 283.7C130.5 283.7 132.213 285.414 132.213 287.528C132.213 289.643 130.5 291.357 128.387 291.357C126.274 291.357 124.561 289.643 124.561 287.528C124.561 285.414 126.274 283.7 128.387 283.7Z" fill="#E1E4E5"/>
<path d="M263.996 156.926C266.343 156.926 268.247 155.402 268.247 153.522C268.247 151.643 266.343 150.119 263.996 150.119C261.648 150.119 259.745 151.643 259.745 153.522C259.745 155.402 261.648 156.926 263.996 156.926Z" fill="#5CC2ED"/>
<path d="M177.778 135.655H177.624C176.709 147.327 167.072 147.507 167.072 147.507C167.072 147.507 177.699 147.693 177.699 161.18C177.699 147.693 188.327 147.507 188.327 147.507C188.327 147.507 178.693 147.327 177.778 135.655Z" fill="#E1E4E5"/>
<path d="M567.316 203.642C576.788 198.492 579.119 184.454 579.119 184.454C579.119 184.454 566.089 178.774 556.62 183.933C547.148 189.083 544.815 203.113 544.815 203.113C544.815 203.113 557.844 208.792 567.316 203.642Z" fill="url(#paint7_linear_199_6246)"/>
<path d="M408.878 101.442C415.926 109.605 430.128 108.89 430.128 108.89C430.128 108.89 432.895 94.9397 425.84 86.7817C418.792 78.6192 404.598 79.3298 404.598 79.3298C404.598 79.3298 401.831 93.2796 408.878 101.442Z" fill="url(#paint8_linear_199_6246)"/>
<path d="M93.4495 258.548C100.498 266.71 114.7 265.996 114.7 265.996C114.7 265.996 117.466 252.045 110.411 243.887C103.364 235.725 89.1686 236.436 89.1686 236.436C89.1686 236.436 86.4021 250.385 93.4495 258.548Z" fill="url(#paint9_linear_199_6246)"/>
</g>
<defs>
<linearGradient id="paint0_linear_199_6246" x1="125.427" y1="394.944" x2="123.918" y2="265.139" gradientUnits="userSpaceOnUse">
<stop stop-color="white"/>
<stop offset="1" stop-color="#EEEEEE"/>
</linearGradient>
<linearGradient id="paint1_linear_199_6246" x1="234.02" y1="386.374" x2="232.341" y2="241.863" gradientUnits="userSpaceOnUse">
<stop stop-color="white"/>
<stop offset="1" stop-color="#EEEEEE"/>
</linearGradient>
<linearGradient id="paint2_linear_199_6246" x1="222.309" y1="179.329" x2="220.629" y2="34.8182" gradientUnits="userSpaceOnUse">
<stop stop-color="white"/>
<stop offset="1" stop-color="#EEEEEE"/>
</linearGradient>
<linearGradient id="paint3_linear_199_6246" x1="542.204" y1="404.48" x2="538.815" y2="112.878" gradientUnits="userSpaceOnUse">
<stop stop-color="white"/>
<stop offset="1" stop-color="#EEEEEE"/>
</linearGradient>
<linearGradient id="paint4_linear_199_6246" x1="504.795" y1="246.226" x2="501.406" y2="-45.376" gradientUnits="userSpaceOnUse">
<stop stop-color="white"/>
<stop offset="1" stop-color="#EEEEEE"/>
</linearGradient>
<linearGradient id="paint5_linear_199_6246" x1="189.826" y1="349.994" x2="186.436" y2="58.3924" gradientUnits="userSpaceOnUse">
<stop stop-color="white"/>
<stop offset="1" stop-color="#EEEEEE"/>
</linearGradient>
<linearGradient id="paint6_linear_199_6246" x1="341.094" y1="246.472" x2="337.704" y2="-45.1297" gradientUnits="userSpaceOnUse">
<stop stop-color="white"/>
<stop offset="1" stop-color="#EEEEEE"/>
</linearGradient>
<linearGradient id="paint7_linear_199_6246" x1="600.864" y1="181.878" x2="503.508" y2="210.8" gradientUnits="userSpaceOnUse">
<stop stop-color="white"/>
<stop offset="1" stop-color="#EEEEEE"/>
</linearGradient>
<linearGradient id="paint8_linear_199_6246" x1="437.279" y1="129.602" x2="388.195" y2="40.6319" gradientUnits="userSpaceOnUse">
<stop stop-color="white"/>
<stop offset="1" stop-color="#EEEEEE"/>
</linearGradient>
<linearGradient id="paint9_linear_199_6246" x1="121.851" y1="286.708" x2="72.7663" y2="197.738" gradientUnits="userSpaceOnUse">
<stop stop-color="white"/>
<stop offset="1" stop-color="#EEEEEE"/>
</linearGradient>
<clipPath id="clip0_199_6246">
<rect width="688" height="459" fill="white"/>
</clipPath>
</defs>
</svg>
