<svg width="48" height="75" viewBox="0 0 48 75" fill="none" xmlns="http://www.w3.org/2000/svg">
<path d="M47.2363 43.1634C47.0503 45.4462 46.8189 47.7251 46.5424 49.9987C45.9646 53.9234 39.2415 54.7325 36.2588 55.4053C34.8516 55.6924 33.4454 55.9804 32.0296 56.1235C31.4509 56.1583 29.3082 55.8219 28.9153 56.0491C27.1975 56.9645 25.1816 72.2688 24.3038 72.176C16.1261 71.5051 7.8419 72.466 0 74.9687C3.67949 57.3589 -1.48359 38.188 5.48344 21.6009C8.38097 14.6922 13.3108 8.70656 19.4804 4.47546C23.4996 1.70886 32.0112 -2.22741 36.4533 1.57063C37.8024 2.73836 38.7111 4.30919 39.4737 5.88969C45.1575 17.277 48.0966 30.3966 47.2363 43.1634Z" fill="#F8AE9D"/>
</svg>
