<svg width="28" height="13" viewBox="0 0 28 13" fill="none" xmlns="http://www.w3.org/2000/svg">
<path d="M5.73621 12.688C4.55778 12.688 3.53528 12.428 2.66879 11.908C1.81313 11.3765 1.15462 10.6427 0.693211 9.70667C0.231803 8.75918 0 7.66133 0 6.41333C0 5.16533 0.231803 4.07333 0.693211 3.13733C1.15462 2.18985 1.81313 1.456 2.66879 0.935998C3.53528 0.404515 4.55778 0.138665 5.73621 0.138665C7.1226 0.138665 8.24903 0.467993 9.11553 1.12666C9.98202 1.78533 10.5365 2.71548 10.7791 3.91733H9.16749C8.98336 3.16615 8.60646 2.56533 8.04107 2.11466C7.47569 1.65251 6.70668 1.42133 5.73621 1.42133C4.86972 1.42133 4.11801 1.62348 3.48331 2.02799C2.8486 2.42081 2.35688 2.99281 2.01028 3.74399C1.66369 4.48348 1.49034 5.37333 1.49034 6.41333C1.49034 7.45333 1.66369 8.34881 2.01028 9.09999C2.35688 9.83948 2.8486 10.4115 3.48331 10.816C4.11801 11.2088 4.86972 11.4053 5.73621 11.4053C6.70668 11.4053 7.47569 11.1858 8.04107 10.7467C8.60646 10.296 8.98336 9.70081 9.16749 8.96133H10.7791C10.5365 10.1285 9.98202 11.0413 9.11553 11.7C8.24903 12.3587 7.1226 12.688 5.73621 12.688ZM15.6445 12.688C14.9405 12.688 14.3513 12.5667 13.8769 12.324C13.4047 12.0698 13.0516 11.7405 12.8198 11.336C12.5901 10.92 12.4732 10.4693 12.4732 9.984C12.4732 9.39466 12.6248 8.89785 12.9238 8.49333C13.2357 8.07733 13.669 7.76533 14.2235 7.55733C14.7911 7.33785 15.4539 7.228 16.2164 7.228H18.5213C18.5213 6.68481 18.4346 6.23415 18.2613 5.876C18.101 5.50615 17.8584 5.22882 17.5335 5.044C17.2215 4.85918 16.8294 4.76666 16.355 4.76666C15.8005 4.76666 15.3217 4.90533 14.9167 5.18266C14.5137 5.46 14.2646 5.87015 14.1715 6.41333H12.6811C12.7505 5.78933 12.9584 5.26933 13.305 4.85333C13.6646 4.42585 14.1152 4.10215 14.6567 3.88267C15.2004 3.65148 15.7658 3.536 16.355 3.536C17.1652 3.536 17.8346 3.68615 18.3653 3.98667C18.909 4.27548 19.3141 4.68584 19.5784 5.21733C19.8449 5.73733 19.977 6.35548 19.977 7.072V12.48H18.6773L18.5906 10.9373C18.4758 11.18 18.3263 11.4112 18.14 11.6307C17.9667 11.8387 17.7588 12.0235 17.5162 12.1853C17.2735 12.3355 16.9963 12.4568 16.6843 12.5493C16.3854 12.6419 16.0388 12.688 15.6445 12.688ZM15.8698 11.4573C16.2749 11.4573 16.6388 11.3765 16.9616 11.2147C17.2973 11.0413 17.5811 10.8101 17.8107 10.5213C18.0425 10.2208 18.2159 9.89148 18.3307 9.53333C18.4585 9.17518 18.5213 8.79948 18.5213 8.40666V8.35466H16.3377C15.7723 8.35466 15.3153 8.424 14.9687 8.56267C14.6221 8.68985 14.3751 8.87467 14.2235 9.11733C14.074 9.34852 13.9982 9.61415 13.9982 9.91467C13.9982 10.2267 14.0675 10.4981 14.2061 10.7293C14.3578 10.9605 14.5701 11.1395 14.8474 11.2667C15.1377 11.3938 15.4777 11.4573 15.8698 11.4573ZM22.2299 12.48V0H23.6856V12.48H22.2299ZM26.088 12.48V0H27.5437V12.48H26.088Z" fill="white"/>
</svg>
