<svg width="97" height="99" viewBox="0 0 97 99" fill="none" xmlns="http://www.w3.org/2000/svg">
<path d="M1.36553 82.3357C-0.301954 78.9137 -0.201314 74.9379 0.400644 71.2278C3.00687 55.3029 14.1799 41.9958 26.9865 32.2441C39.8347 22.4672 54.541 15.4878 68.059 6.72695C71.5672 4.44465 75.0841 1.98737 79.1119 0.754872C83.1398 -0.478595 87.822 -0.346164 91.1472 2.24837C93.496 4.0686 94.8529 6.88354 95.6435 9.69944C97.3739 15.8639 96.711 22.3918 95.6542 28.6442C94.3351 36.5322 92.3976 44.3371 89.2155 51.5861C86.6645 57.4335 82.5127 63.4509 76.2735 64.5964C74.4676 71.5854 70.7504 78.1356 65.536 83.1458C59.5725 88.8917 52.0113 92.6491 44.1645 95.2726C36.9343 97.6951 29.0265 99.2775 21.7547 97.0165C17.4374 95.6989 13.636 93.1643 9.91778 90.5795C6.60024 88.3774 3.15785 85.9666 1.36553 82.3357ZM66.707 71.7169L70.9749 64.9493C70.0652 65.0421 69.2068 65.219 68.3396 65.5708C65.9966 66.5839 64.5846 70.2708 66.707 71.7169Z" fill="#31446C"/>
</svg>
