<svg width="44" height="114" viewBox="0 0 44 114" fill="none" xmlns="http://www.w3.org/2000/svg">
<path d="M1.52036 107.091C4.98694 97.295 11.6162 89.0194 18.1245 80.9873C23.8412 73.8688 29.8017 66.7493 34.4848 58.9C34.4848 58.9 34.4238 58.9 34.4238 58.8391H34.5458C35.5794 57.1358 36.492 55.4316 37.4036 53.6674C39.9586 48.4948 41.7219 43.0795 42.9383 37.4815C42.9383 37.3597 42.9993 37.178 42.9993 37.0562C43.0603 36.3254 43.1213 35.1693 43.3032 33.5269C44.0939 22.5137 40.7492 12.3521 33.0854 4.25914C31.6338 2.7459 30.0902 1.32349 28.4633 0C23.4763 6.3278 18.9152 13.021 16.2993 20.6267C14.2321 26.5901 13.3805 33.0397 12.2859 39.1858C7.90672 63.4636 3.16269 87.9241 0.0609587 112.385C-1.13421e-05 112.628 0 112.933 0 113.176C0.425822 111.169 1.03454 109.099 1.52036 107.091ZM0.973566 108.43C0.851627 108.977 0.790672 109.282 0.729702 109.403C0.851642 109.099 0.912597 108.735 0.973566 108.43Z" fill="url(#paint0_linear_144_1422)"/>
<defs>
<linearGradient id="paint0_linear_144_1422" x1="-24.3415" y1="59.0015" x2="90.6595" y2="58.488" gradientUnits="userSpaceOnUse">
<stop stop-color="white"/>
<stop offset="1" stop-color="#EEEEEE"/>
</linearGradient>
</defs>
</svg>
