<svg width="14" height="13" viewBox="0 0 14 13" fill="none" xmlns="http://www.w3.org/2000/svg">
<path d="M4.29924 4.94451H7.18903M4.29924 7.47215H9.35526M7.54859 12.5278C10.9387 12.5278 13.6877 9.77922 13.6877 6.38882C13.6877 2.99842 10.9387 0.25 7.54859 0.25C4.15844 0.25 1.4117 2.99842 1.4117 6.38882C1.4117 7.075 1.5243 7.73475 1.73226 8.35095C1.81024 8.58278 1.84925 8.6987 1.85575 8.78775C1.86225 8.87571 1.85791 8.93725 1.83625 9.02283C1.81459 9.10928 1.76476 9.19942 1.66728 9.37947L0.486715 11.5661C0.317749 11.8779 0.233262 12.0339 0.252758 12.1543C0.270088 12.259 0.330749 12.3513 0.42173 12.4065C0.52571 12.47 0.701158 12.4518 1.05425 12.4154L4.75202 12.033C4.86466 12.0215 4.92101 12.0156 4.97083 12.0176C5.02066 12.0195 5.05744 12.0243 5.1051 12.0356C5.15492 12.0471 5.21778 12.0711 5.34342 12.1194C6.02795 12.3831 6.77091 12.5278 7.54859 12.5278Z" stroke="white" stroke-width="0.5" stroke-linecap="round" stroke-linejoin="round"/>
</svg>
