<svg width="69" height="17" viewBox="0 0 69 17" fill="none" xmlns="http://www.w3.org/2000/svg">
<path d="M0 12.1333V0H1.69832L5.97876 8.476L10.2766 0H11.9922V12.1333H10.5365V2.59999L6.53334 10.4347H5.44157L1.4557 2.63467V12.1333H0ZM18.3155 12.3413C17.4945 12.3413 16.7666 12.1507 16.1319 11.7693C15.508 11.388 15.0163 10.8565 14.6589 10.1747C14.2993 9.48133 14.1216 8.67815 14.1216 7.76533C14.1216 6.84082 14.295 6.03785 14.6416 5.356C14.999 4.67415 15.4951 4.14267 16.1319 3.76133C16.7775 3.38 17.5184 3.18933 18.3502 3.18933C19.2037 3.18933 19.9272 3.38 20.5164 3.76133C21.1165 4.14267 21.5735 4.64533 21.8855 5.26933C22.2082 5.88185 22.3707 6.55785 22.3707 7.29733C22.3707 7.41282 22.3707 7.53415 22.3707 7.66133C22.3707 7.78852 22.3642 7.93282 22.3534 8.09467H15.2134V6.968H20.9496C20.915 6.17067 20.6486 5.54666 20.1525 5.09599C19.6673 4.64533 19.0542 4.41999 18.3155 4.41999C17.8172 4.41999 17.3559 4.53548 16.9291 4.76666C16.5132 4.98614 16.1774 5.31548 15.9239 5.75466C15.6683 6.18215 15.5427 6.71948 15.5427 7.36666V7.85199C15.5427 8.56851 15.6683 9.16933 15.9239 9.65466C16.1882 10.14 16.5305 10.504 16.9464 10.7467C17.3732 10.9893 17.8302 11.1107 18.3155 11.1107C18.9264 11.1107 19.429 10.9779 19.8232 10.712C20.2261 10.4347 20.5164 10.0648 20.6897 9.60266H22.1281C21.9894 10.1227 21.7468 10.5907 21.4002 11.0067C21.0536 11.4227 20.6204 11.752 20.1005 11.9947C19.5914 12.2258 18.9957 12.3413 18.3155 12.3413ZM27.626 12.3413C26.8981 12.3413 26.2634 12.22 25.7197 11.9773C25.1889 11.7347 24.7622 11.3995 24.4373 10.972C24.1254 10.5328 23.9347 10.0187 23.8654 9.42933H25.3557C25.4142 9.72985 25.5355 10.0072 25.7197 10.2613C25.906 10.5155 26.1529 10.7235 26.4648 10.8853C26.7898 11.0355 27.1819 11.1107 27.6433 11.1107C28.0484 11.1107 28.3842 11.0528 28.6485 10.9373C28.9149 10.8102 29.112 10.6427 29.2376 10.4347C29.3762 10.2267 29.4456 10.0013 29.4456 9.75866C29.4456 9.40051 29.3589 9.12881 29.1856 8.944C29.0253 8.75918 28.7827 8.61466 28.4578 8.51066C28.135 8.39518 27.7429 8.29682 27.2794 8.216C26.8981 8.14667 26.5234 8.05414 26.1529 7.93866C25.7847 7.82318 25.4554 7.67281 25.1651 7.48799C24.877 7.29148 24.6452 7.05466 24.4719 6.77733C24.3116 6.5 24.2293 6.15918 24.2293 5.75466C24.2293 5.25785 24.3571 4.81867 24.6106 4.43733C24.8662 4.04452 25.2301 3.73814 25.7023 3.51866C26.1876 3.29918 26.7486 3.18933 27.3833 3.18933C28.3192 3.18933 29.0773 3.41466 29.6536 3.86533C30.2319 4.31599 30.572 4.96882 30.676 5.824H29.2376C29.1813 5.38482 28.9907 5.044 28.6658 4.80133C28.3538 4.54718 27.9206 4.41999 27.366 4.41999C26.8245 4.41999 26.4086 4.52984 26.1183 4.74933C25.841 4.96881 25.7023 5.25785 25.7023 5.616C25.7023 5.84718 25.7782 6.05518 25.9276 6.23999C26.0901 6.41333 26.3219 6.56348 26.6208 6.69066C26.9328 6.81784 27.314 6.92185 27.7646 7.00266C28.343 7.10666 28.8694 7.24533 29.3416 7.41867C29.816 7.592 30.1973 7.85199 30.4854 8.19866C30.7865 8.53384 30.936 9.01333 30.936 9.63733C30.936 10.1805 30.7973 10.6542 30.52 11.0587C30.2558 11.4632 29.8745 11.7808 29.3763 12.012C28.8802 12.2315 28.2975 12.3413 27.626 12.3413ZM36.3255 12.3413C35.5977 12.3413 34.963 12.22 34.4193 11.9773C33.8886 11.7347 33.4596 11.3995 33.1369 10.972C32.8249 10.5328 32.6343 10.0187 32.565 9.42933H34.0554C34.1139 9.72985 34.2352 10.0072 34.4193 10.2613C34.6034 10.5155 34.8525 10.7235 35.1645 10.8853C35.4872 11.0355 35.8815 11.1107 36.3429 11.1107C36.748 11.1107 37.0816 11.0528 37.348 10.9373C37.6145 10.8102 37.8094 10.6427 37.9373 10.4347C38.0759 10.2267 38.1452 10.0013 38.1452 9.75866C38.1452 9.40051 38.0585 9.12881 37.8852 8.944C37.7228 8.75918 37.4801 8.61466 37.1574 8.51066C36.8346 8.39518 36.4404 8.29682 35.979 8.216C35.5977 8.14667 35.2229 8.05414 34.8525 7.93866C34.4821 7.82318 34.1528 7.67281 33.8647 7.48799C33.5766 7.29148 33.3448 7.05466 33.1715 6.77733C33.009 6.5 32.9289 6.15918 32.9289 5.75466C32.9289 5.25785 33.0567 4.81867 33.3101 4.43733C33.5636 4.04452 33.9275 3.73814 34.4019 3.51866C34.8872 3.29918 35.4482 3.18933 36.0829 3.18933C37.0187 3.18933 37.7748 3.41466 38.3531 3.86533C38.9315 4.31599 39.2717 4.96882 39.3756 5.824H37.9373C37.8788 5.38482 37.6881 5.044 37.3654 4.80133C37.0534 4.54718 36.6202 4.41999 36.0656 4.41999C35.5219 4.41999 35.106 4.52984 34.8179 4.74933C34.5406 4.96881 34.4019 5.25785 34.4019 5.616C34.4019 5.84718 34.4777 6.05518 34.6272 6.23999C34.7897 6.41333 35.0193 6.56348 35.3204 6.69066C35.6324 6.81784 36.0137 6.92185 36.4642 7.00266C37.0426 7.10666 37.5668 7.24533 38.0412 7.41867C38.5156 7.592 38.8969 7.85199 39.185 8.19866C39.4861 8.53384 39.6356 9.01333 39.6356 9.63733C39.6356 10.1805 39.4969 10.6542 39.2196 11.0587C38.9532 11.4632 38.5719 11.7808 38.0759 12.012C37.5798 12.2315 36.9949 12.3413 36.3255 12.3413ZM44.5746 12.3413C43.8684 12.3413 43.2792 12.22 42.8069 11.9773C42.3325 11.7232 41.9794 11.3938 41.7498 10.9893C41.518 10.5733 41.4032 10.1227 41.4032 9.63733C41.4032 9.048 41.5527 8.55118 41.8538 8.14666C42.1657 7.73066 42.599 7.41866 43.1535 7.21067C43.7189 6.99118 44.384 6.88133 45.1465 6.88133H47.4513C47.4513 6.33815 47.3647 5.88748 47.1914 5.52933C47.0289 5.15948 46.7863 4.88215 46.4636 4.69733C46.1516 4.51252 45.7574 4.41999 45.2851 4.41999C44.7306 4.41999 44.2497 4.55866 43.8467 4.836C43.4416 5.11333 43.1925 5.52348 43.1016 6.06667H41.6112C41.6805 5.44267 41.8884 4.92266 42.235 4.50666C42.5924 4.07918 43.0431 3.75548 43.5868 3.536C44.1284 3.30482 44.6959 3.18933 45.2851 3.18933C46.0931 3.18933 46.7625 3.33948 47.2954 3.64C47.837 3.92882 48.242 4.33918 48.5085 4.87066C48.7728 5.39066 48.9071 6.00882 48.9071 6.72533V12.1333H47.6073L47.5206 10.5907C47.4037 10.8333 47.2542 11.0645 47.0701 11.284C46.8968 11.492 46.6888 11.6768 46.4462 11.8387C46.2036 11.9888 45.9263 12.1102 45.6144 12.2027C45.3133 12.2952 44.9667 12.3413 44.5746 12.3413ZM44.7999 11.1107C45.2028 11.1107 45.5667 11.0298 45.8917 10.868C46.2253 10.6947 46.509 10.4635 46.7408 10.1747C46.9704 9.87415 47.1437 9.54481 47.2607 9.18666C47.3863 8.82851 47.4513 8.45281 47.4513 8.05999V8.008H45.2678C44.7002 8.008 44.2453 8.07733 43.8987 8.216C43.5521 8.34318 43.303 8.528 43.1535 8.77067C43.0019 9.00185 42.9282 9.26748 42.9282 9.568C42.9282 9.88 42.9976 10.1515 43.1362 10.3827C43.2857 10.6138 43.5001 10.7928 43.7774 10.92C44.0655 11.0472 44.4056 11.1107 44.7999 11.1107ZM54.6064 16.1547C53.8223 16.1547 53.1225 16.0507 52.5095 15.8427C51.9094 15.6462 51.4415 15.34 51.1057 14.924C50.7721 14.508 50.6032 13.9938 50.6032 13.3813C50.6032 13.1155 50.6552 12.8325 50.7592 12.532C50.8762 12.2315 51.0668 11.9368 51.331 11.648C51.6083 11.3592 51.9961 11.0992 52.4922 10.868L53.4973 11.4573C52.8864 11.7115 52.4878 12.0005 52.3015 12.324C52.1174 12.6592 52.0243 12.9653 52.0243 13.2427C52.0243 13.624 52.1347 13.9418 52.3535 14.196C52.5745 14.4501 52.8799 14.6408 53.272 14.768C53.6662 14.8952 54.1104 14.9587 54.6064 14.9587C55.1047 14.9587 55.5314 14.8893 55.8888 14.7507C56.2484 14.612 56.5257 14.4155 56.7206 14.1613C56.9178 13.9072 57.0153 13.6067 57.0153 13.26C57.0153 12.8555 56.8658 12.5147 56.5647 12.2373C56.2658 11.9715 55.6939 11.8155 54.8491 11.7693C54.1689 11.7232 53.5969 11.6595 53.1334 11.5787C52.6719 11.4978 52.2907 11.4053 51.9896 11.3013C51.6907 11.1858 51.435 11.0587 51.2271 10.92C51.0321 10.7813 50.8523 10.6368 50.6899 10.4867V10.088L52.3709 8.42399L53.6359 8.87466L51.9029 10.4347L52.1282 9.828C52.256 9.92052 52.3774 10.0072 52.4922 10.088C52.6091 10.1688 52.7651 10.2381 52.9601 10.296C53.1572 10.3538 53.428 10.4058 53.7746 10.452C54.1342 10.4981 54.6021 10.5445 55.1783 10.5907C55.9754 10.6485 56.6123 10.7872 57.0846 11.0067C57.5698 11.2261 57.9164 11.5208 58.1244 11.8907C58.3453 12.2605 58.4537 12.6995 58.4537 13.208C58.4537 13.7048 58.315 14.1728 58.0377 14.612C57.7734 15.0627 57.3575 15.4325 56.79 15.7213C56.2246 16.0101 55.4968 16.1547 54.6064 16.1547ZM54.5891 9.39466C53.8612 9.39466 53.2374 9.25599 52.7175 8.97866C52.2106 8.70133 51.8228 8.33148 51.5563 7.86933C51.2921 7.39548 51.1578 6.86985 51.1578 6.292C51.1578 5.71415 51.2921 5.19415 51.5563 4.732C51.8336 4.26985 52.2279 3.89999 52.7348 3.62266C53.2438 3.33384 53.8612 3.18933 54.5891 3.18933C55.3169 3.18933 55.9365 3.33384 56.4434 3.62266C56.9525 3.89999 57.3402 4.26985 57.6044 4.732C57.8709 5.19415 58.0031 5.71415 58.0031 6.292C58.0031 6.86985 57.8709 7.39548 57.6044 7.86933C57.3402 8.33148 56.9525 8.70133 56.4434 8.97866C55.9365 9.25599 55.3169 9.39466 54.5891 9.39466ZM54.5891 8.19866C55.2129 8.19866 55.7047 8.03681 56.0621 7.71333C56.4217 7.38984 56.5993 6.916 56.5993 6.292C56.5993 5.67948 56.4217 5.21148 56.0621 4.88799C55.7047 4.56451 55.2129 4.40266 54.5891 4.40266C53.9782 4.40266 53.48 4.56451 53.0987 4.88799C52.7304 5.21148 52.5441 5.67948 52.5441 6.292C52.5441 6.916 52.7304 7.38984 53.0987 7.71333C53.4691 8.03681 53.9652 8.19866 54.5891 8.19866ZM56.0101 4.628L55.5769 3.39733H59.1468V4.48933L56.0101 4.628ZM64.3133 12.3413C63.4923 12.3413 62.7645 12.1507 62.1297 11.7693C61.5059 11.388 61.0142 10.8565 60.6567 10.1747C60.2993 9.48133 60.1195 8.67815 60.1195 7.76533C60.1195 6.84082 60.2927 6.03785 60.6393 5.356C60.9968 4.67415 61.495 4.14267 62.1297 3.76133C62.7775 3.38 63.5161 3.18933 64.3479 3.18933C65.2036 3.18933 65.925 3.38 66.5142 3.76133C67.1142 4.14267 67.5713 4.64533 67.8833 5.26933C68.206 5.88185 68.3685 6.55785 68.3685 7.29733C68.3685 7.41282 68.3685 7.53415 68.3685 7.66133C68.3685 7.78852 68.362 7.93282 68.3512 8.09467H61.2112V6.968H66.9474C66.9128 6.17067 66.6463 5.54666 66.1503 5.09599C65.665 4.64533 65.052 4.41999 64.3133 4.41999C63.8172 4.41999 63.3536 4.53548 62.9269 4.76666C62.511 4.98614 62.1752 5.31548 61.9218 5.75466C61.6683 6.18215 61.5405 6.71948 61.5405 7.36666V7.85199C61.5405 8.56851 61.6683 9.16933 61.9218 9.65466C62.1882 10.14 62.5284 10.504 62.9443 10.7467C63.371 10.9893 63.8281 11.1107 64.3133 11.1107C64.9263 11.1107 65.4289 10.9779 65.821 10.712C66.2261 10.4347 66.5142 10.0648 66.6875 9.60266H68.1259C67.9873 10.1227 67.7446 10.5907 67.398 11.0067C67.0514 11.4227 66.6182 11.752 66.0983 11.9947C65.5892 12.2258 64.9957 12.3413 64.3133 12.3413Z" fill="white"/>
</svg>
