<svg width="60" height="109" viewBox="0 0 60 109" fill="none" xmlns="http://www.w3.org/2000/svg">
<path d="M0.605836 107.917C0.666806 107.735 0.666806 107.614 0.726808 107.432C0.666806 107.735 0.605832 107.978 0.544862 108.28C0.544862 108.158 0.545834 108.038 0.605836 107.917C0.545834 108.28 0.423894 108.643 0.363891 108.945C5.3915 89.5771 28.1062 86.914 44.7026 85.9463C45.1265 85.9463 47.4889 71.602 47.1259 73.4174C47.2469 72.6914 47.3679 72.0254 47.4889 71.2994C47.3679 71.2385 47.1859 71.1776 47.065 71.1177C47.1259 71.0568 47.1859 70.9959 47.2469 70.9959C47.3679 70.9359 47.4889 70.8151 47.6098 70.7542C49.2454 61.5544 50.8809 52.2938 52.4565 43.0341C54.152 32.9256 55.9085 22.7573 57.4831 12.6498C57.665 11.3786 59.1796 0 59.3006 0C49.1244 0.605133 38.4034 1.15033 29.2569 5.99236C25.38 8.0504 21.806 10.8953 19.0807 14.4053C14.9009 19.8524 14.1141 26.389 12.9024 32.9865C9.20744 53.2015 5.7544 73.4783 2.48331 93.7541C1.69651 98.5961 0.545827 103.619 0 108.583C0.181942 108.219 0.363891 107.856 0.605836 107.493V107.917Z" fill="url(#paint0_linear_144_1423)"/>
<defs>
<linearGradient id="paint0_linear_144_1423" x1="-33.247" y1="56.7955" x2="123.824" y2="55.8005" gradientUnits="userSpaceOnUse">
<stop stop-color="white"/>
<stop offset="1" stop-color="#EEEEEE"/>
</linearGradient>
</defs>
</svg>
